<?xml version="1.0" standalone="no"?>
<!DOCTYPE svg PUBLIC "-//W3C//DTD SVG 20010904//EN"
 "http://www.w3.org/TR/2001/REC-SVG-20010904/DTD/svg10.dtd">
<svg version="1.0" xmlns="http://www.w3.org/2000/svg"
 width="592.000000pt" height="352.000000pt" viewBox="0 0 592.000000 352.000000"
 preserveAspectRatio="xMidYMid meet">

<g transform="translate(0.000000,352.000000) scale(0.100000,-0.100000)"
fill="#000000" stroke="none">
<path d="M0 1760 l0 -1760 2960 0 2960 0 0 1760 0 1760 -2960 0 -2960 0 0
-1760z m1813 1276 c78 -30 351 -133 606 -228 l463 -173 -6 -85 c-4 -47 -11
-121 -17 -165 -9 -79 -42 -379 -59 -545 -12 -116 -48 -447 -60 -545 -13 -115
-28 -249 -45 -415 -28 -270 -36 -319 -54 -324 -9 -3 -47 -10 -86 -16 -125 -19
-738 -120 -795 -130 -132 -24 -547 -90 -566 -90 -25 0 -24 -3 -55 178 -18 106
-20 135 -10 141 7 5 63 16 124 25 62 10 135 22 162 27 28 5 217 36 420 69 486
79 496 81 500 94 2 6 11 81 20 166 9 85 20 193 25 240 5 47 14 130 19 185 6
55 17 165 26 245 8 80 20 186 25 235 5 50 17 160 26 245 9 85 17 175 17 198
l2 44 -200 79 c-110 44 -310 123 -444 176 l-244 96 -166 -17 c-91 -10 -206
-21 -256 -26 -49 -5 -202 -21 -340 -35 -418 -43 -458 -46 -467 -37 -7 7 -27
210 -28 284 0 32 -24 28 395 68 278 26 684 67 790 79 120 14 132 13 278 -43z
m3651 -3 c3 -21 8 -90 12 -154 7 -138 21 -125 -146 -134 -63 -3 -173 -10 -245
-15 -71 -5 -242 -17 -380 -25 -137 -8 -308 -20 -380 -25 -71 -5 -211 -14 -310
-20 -99 -6 -191 -12 -205 -13 -32 -3 -34 73 15 -812 14 -263 21 -389 49 -917
8 -141 17 -261 21 -268 4 -6 19 -9 33 -6 23 5 328 36 637 66 50 5 135 13 190
19 55 6 174 17 265 26 168 17 230 26 232 35 2 8 -28 435 -50 725 l-7 90 -399
3 c-305 2 -402 5 -408 15 -10 15 -11 314 0 320 4 2 257 6 562 8 l554 4 7 -30
c4 -16 15 -133 24 -260 8 -126 20 -279 25 -340 17 -208 30 -370 45 -570 8
-110 17 -215 18 -233 4 -39 7 -38 -153 -52 -163 -14 -321 -28 -500 -46 -85 -8
-200 -19 -255 -24 -55 -5 -174 -17 -265 -25 -164 -16 -284 -27 -475 -45 -55
-5 -174 -16 -264 -25 -90 -9 -168 -12 -172 -8 -4 4 -12 136 -18 293 -6 157
-16 373 -21 480 -15 310 -29 618 -45 1005 -9 198 -20 438 -25 532 -6 95 -10
211 -10 257 l0 83 123 7 c67 4 183 11 257 16 171 12 275 18 1115 71 99 6 225
14 280 19 55 4 137 8 182 9 l81 1 6 -37z m-4540 -605 c3 -35 8 -148 11 -253
11 -359 35 -1076 55 -1614 8 -227 8 -286 -2 -293 -17 -10 -309 -10 -326 1 -15
9 -13 -18 -62 1431 -6 173 -15 418 -20 544 -5 126 -7 233 -4 238 3 4 81 8 174
8 l168 0 6 -62z"/>
</g>
</svg>
