<?xml version="1.0" encoding="utf-8"?>
<!-- Generator: Adobe Illustrator 27.5.0, SVG Export Plug-In . SVG Version: 6.00 Build 0)  -->
<svg version="1.1" xmlns="http://www.w3.org/2000/svg" xmlns:xlink="http://www.w3.org/1999/xlink" x="0px" y="0px"
	 viewBox="0 0 500 500" style="enable-background:new 0 0 500 500;" xml:space="preserve">
<g id="BACKGROUND">
	<rect style="fill:#fff;" width="500" height="420"/>
</g>
<g id="OBJECTS">
	<g>
		<linearGradient id="SVGID_1_" gradientUnits="userSpaceOnUse" x1="123.3617" y1="216.7765" x2="376.2233" y2="215.8955">
			<stop  offset="0" style="stop-color:#DB3ABC"/>
			<stop  offset="1" style="stop-color:#5432C4"/>
		</linearGradient>
		<path style="fill:url(#SVGID_1_);" d="M315.672,195.47v33.609h25.983v18.253c0,1.55-0.387,3.32-1.164,5.299
			c-0.775,1.985-1.983,3.837-3.619,5.56c-1.64,1.724-3.709,3.19-6.204,4.394c-2.501,1.208-5.389,1.81-8.662,1.81h-31.54
			c-6.723,0-12.24-2.928-16.546-8.79c-4.31-5.858-6.463-13.528-6.463-23.009v-23.916h-0.014v-9.454
			c0-7.927-1.078-15.771-3.232-23.526c-2.157-7.756-5.558-14.648-10.212-20.684c-4.653-6.03-10.559-10.943-17.71-14.736
			c-7.154-3.789-15.641-5.688-25.465-5.688h-90.743v33.609h80.256c15.036,0,29.619,5.788,29.619,29.18v22.197h0.014v19.221
			c0,6.551,1.119,13.314,3.362,20.295c2.237,6.979,5.557,13.358,9.953,19.13c4.394,5.778,9.779,10.56,16.158,14.349
			c6.375,3.793,13.702,5.688,21.976,5.688h44.984c10.168,0,18.655-1.895,25.464-5.688c6.807-3.789,12.28-8.313,16.418-13.572
			c4.135-5.257,7.11-10.77,8.918-16.546c1.811-5.774,2.716-10.64,2.716-14.607v-47.217c0-2.85-2.311-5.161-5.161-5.161H315.672z"/>
		
			<linearGradient id="SVGID_00000080180616507676306570000000473178810375571333_" gradientUnits="userSpaceOnUse" x1="268.7571" y1="260.4024" x2="291.8076" y2="279.9452">
			<stop  offset="0" style="stop-color:#4E5776"/>
			<stop  offset="0.9964" style="stop-color:#FFFFFF;stop-opacity:0"/>
		</linearGradient>
		<path style="fill:url(#SVGID_00000080180616507676306570000000473178810375571333_);" d="M317.276,264.395h-26.81
			c-6.723,0-12.24-2.928-16.546-8.79c-4.31-5.858-6.463-13.528-6.463-23.009v-14.436h-37.501v1.419h0.014v19.221
			c0,6.551,1.119,13.314,3.362,20.295c2.237,6.979,5.557,13.358,9.953,19.13c4.394,5.778,9.779,10.56,16.158,14.349
			c6.375,3.793,13.702,5.688,21.975,5.688h35.858V264.395z"/>
		
			<linearGradient id="SVGID_00000158743088227392548400000015194651116601414819_" gradientUnits="userSpaceOnUse" x1="226.9258" y1="191.5893" x2="192.8001" y2="165.0471">
			<stop  offset="0" style="stop-color:#4E5776"/>
			<stop  offset="0.9964" style="stop-color:#FFFFFF;stop-opacity:0"/>
		</linearGradient>
		<path style="fill:url(#SVGID_00000158743088227392548400000015194651116601414819_);" d="M229.957,197.382v19.582h37.501v-8.284
			h-0.014v-9.454c0-7.927-1.078-15.771-3.232-23.525c-2.157-7.756-5.558-14.648-10.212-20.684
			c-4.653-6.03-10.559-10.943-17.71-14.736c-7.154-3.789-15.641-5.688-25.465-5.688h-90.743v33.609h80.256
			C215.374,168.203,229.957,173.991,229.957,197.382z"/>
		
			<radialGradient id="SVGID_00000170263849176688574340000005333243022063094192_" cx="171.1475" cy="99.8764" r="110.214" gradientUnits="userSpaceOnUse">
			<stop  offset="0" style="stop-color:#FFFFFF"/>
			<stop  offset="0.9964" style="stop-color:#FFFFFF;stop-opacity:0"/>
		</radialGradient>
		<path style="opacity:0.7;fill:url(#SVGID_00000170263849176688574340000005333243022063094192_);" d="M188.931,139.755
			c30.815,0,38.57,1.712,44.942,5.087c6.463,3.428,11.861,7.912,16.041,13.329c4.219,5.475,7.357,11.839,9.324,18.913
			c2.019,7.271,3.044,14.722,3.044,22.142v14.616h0.013v18.755c0,10.564,2.512,19.335,7.468,26.068
			c5.306,7.224,12.271,10.89,20.702,10.89h31.541c4.044,0,7.713-0.781,10.905-2.324c3.048-1.47,5.638-3.316,7.7-5.484
			c2.098-2.211,3.674-4.647,4.687-7.243c1.005-2.56,1.517-4.978,1.517-7.174v-23.414h-31.145v5.161h25.984v18.253
			c0,1.55-0.387,3.32-1.164,5.299c-0.775,1.985-1.983,3.837-3.619,5.56c-1.64,1.724-3.709,3.19-6.204,4.394
			c-2.501,1.208-5.389,1.81-8.662,1.81h-31.54c-6.723,0-12.24-2.928-16.546-8.79c-4.31-5.858-6.463-13.528-6.463-23.009v-23.916
			h-0.014v-9.454c0-7.927-1.078-15.771-3.232-23.526c-2.157-7.756-5.558-14.648-10.212-20.684
			c-4.653-6.03-10.559-10.943-17.71-14.736c-7.154-3.789-15.641-5.688-25.465-5.688h-90.743v5.161H188.931z"/>
		
			<linearGradient id="SVGID_00000009568038874180387100000000807948964221215931_" gradientUnits="userSpaceOnUse" x1="247.4639" y1="316.3415" x2="250.1606" y2="198.5827">
			<stop  offset="0" style="stop-color:#4E5776"/>
			<stop  offset="0.9964" style="stop-color:#FFFFFF;stop-opacity:0"/>
		</linearGradient>
		<path style="fill:url(#SVGID_00000009568038874180387100000000807948964221215931_);" d="M315.671,195.47v5.161h59.086v47.218
			c0,3.421-0.835,7.817-2.48,13.064c-1.611,5.144-4.319,10.156-8.049,14.897c-3.693,4.694-8.698,8.817-14.874,12.256
			c-5.999,3.342-13.721,5.035-22.953,5.035h-44.983c-7.296,0-13.803-1.67-19.339-4.961c-5.779-3.436-10.72-7.821-14.687-13.037
			c-4.025-5.289-7.102-11.203-9.145-17.582c-2.068-6.436-3.116-12.733-3.116-18.72v-24.383h-0.013v-17.036
			c0-22.145-12.353-34.34-34.781-34.34h-80.256v5.161h80.256c15.036,0,29.619,5.789,29.619,29.18v22.197h0.014v19.221
			c0,6.551,1.119,13.314,3.362,20.295c2.237,6.979,5.557,13.358,9.953,19.13c4.394,5.778,9.779,10.56,16.158,14.349
			c6.375,3.793,13.702,5.688,21.976,5.688h44.984c10.168,0,18.655-1.894,25.464-5.688c6.807-3.789,12.28-8.313,16.418-13.572
			c4.135-5.257,7.109-10.771,8.918-16.546c1.811-5.774,2.716-10.64,2.716-14.607v-47.217c0-2.851-2.311-5.161-5.161-5.161H315.671z"
			/>
		
			<linearGradient id="SVGID_00000067233130476602835490000009090923044177204146_" gradientUnits="userSpaceOnUse" x1="118.5871" y1="215.0842" x2="377.6243" y2="217.7274">
			<stop  offset="0" style="stop-color:#DB00BC"/>
			<stop  offset="0.1618" style="stop-color:#DD15A9"/>
			<stop  offset="0.4978" style="stop-color:#E24D79"/>
			<stop  offset="0.976" style="stop-color:#EAA52C"/>
			<stop  offset="1" style="stop-color:#EAAA28"/>
		</linearGradient>
		<path style="fill:url(#SVGID_00000067233130476602835490000009090923044177204146_);" d="M379.922,134.59v33.616h-87.427
			c-11.646,0-25.037,5.957-25.037,26.007v27.566h-0.01v17.797c0,6.721-1.084,13.577-3.232,20.556
			c-2.158,6.979-5.565,13.308-10.221,18.997c-4.646,5.689-10.51,10.304-17.572,13.835c-7.072,3.531-15.518,5.296-25.336,5.296
			h-91.01v-99.392c0-2.85,2.311-5.161,5.161-5.161h32.326v70.947h41.855c24.025,0,30.54-11.842,30.54-28.63v-27.347h0.01v-21.598
			c0-5.689,1.249-11.636,3.748-17.841c0.733-1.838,1.549-3.624,2.457-5.358c2.127-4.161,4.718-8.063,7.754-11.708
			c4.77-5.72,10.386-10.283,16.839-13.68c4.976-2.622,10.562-3.903,16.199-3.903H379.922z"/>
		
			<linearGradient id="SVGID_00000077314726877278949570000009303308121974572692_" gradientUnits="userSpaceOnUse" x1="249.9847" y1="188.5989" x2="249.6299" y2="306.3793">
			<stop  offset="0.0036" style="stop-color:#FFFFFF;stop-opacity:0"/>
			<stop  offset="1" style="stop-color:#AF2941"/>
		</linearGradient>
		<path style="fill:url(#SVGID_00000077314726877278949570000009303308121974572692_);" d="M292.494,163.042
			c-14.598,0-30.197,8.188-30.197,31.167v22.408l-0.013,5.161v17.798c0,6.17-1.01,12.573-3.002,19.031
			c-1.951,6.31-5.072,12.117-9.276,17.256c-4.17,5.097-9.517,9.297-15.893,12.484c-6.309,3.155-14.057,4.755-23.029,4.755h-85.841
			v-99.399l0,0c-2.851,0-5.161,2.311-5.161,5.161v99.399h91.002c9.824,0,18.268-1.764,25.337-5.299
			c7.064-3.531,12.926-8.145,17.58-13.832c4.653-5.688,8.055-12.022,10.212-19.001c2.154-6.981,3.232-13.833,3.232-20.553v-17.798
			h0.014v-27.569c0-20.044,13.395-26.006,25.037-26.006h87.424v-5.161H292.494z"/>
		
			<radialGradient id="SVGID_00000113318989722764434860000017759236507081618614_" cx="215.2802" cy="112.3047" r="156.7469" gradientUnits="userSpaceOnUse">
			<stop  offset="0" style="stop-color:#FFFFFF"/>
			<stop  offset="0.9964" style="stop-color:#FFFFFF;stop-opacity:0"/>
		</radialGradient>
		<path style="opacity:0.7;fill:url(#SVGID_00000113318989722764434860000017759236507081618614_);" d="M152.407,193.702v76.112
			h47.014c24.021,0,35.698-11.053,35.698-33.791v-22.182l0.013-5.161v-21.605c0-5.005,1.136-10.357,3.374-15.91
			c2.283-5.675,5.442-10.952,9.39-15.688c4.301-5.166,9.439-9.344,15.275-12.419c4.104-2.162,8.876-3.305,13.795-3.305h102.953
			v-5.161H276.965c-5.631,0-11.218,1.275-16.2,3.899c-6.454,3.4-12.071,7.959-16.835,13.68c-4.31,5.171-7.714,10.858-10.212,17.063
			c-2.5,6.204-3.748,12.152-3.748,17.84v21.605h-0.014v27.342c0,16.79-6.509,28.63-30.536,28.63h-41.853v-70.951H152.407z"/>
		
			<radialGradient id="SVGID_00000111153931239647227180000018165925350996028602_" cx="267.4144" cy="133.0251" r="84.1917" gradientTransform="matrix(0.9777 -0.2102 0.0952 0.4426 -6.6848 130.3586)" gradientUnits="userSpaceOnUse">
			<stop  offset="0" style="stop-color:#FFFFFF"/>
			<stop  offset="0.9964" style="stop-color:#FFFFFF;stop-opacity:0"/>
		</radialGradient>
		<path style="opacity:0.7;fill:url(#SVGID_00000111153931239647227180000018165925350996028602_);" d="M309.2,134.59
			c-8.487,7.971-23.013,16.178-40.441,22.125c-11.666,3.985-22.941,6.37-32.584,7.165c2.127-4.161,4.718-8.063,7.754-11.708
			c4.77-5.72,10.386-10.283,16.839-13.68c4.976-2.622,10.562-3.903,16.199-3.903H309.2z"/>
	</g>
</g>
<!-- <g id="TEXTS">
	<g>
		<g>
			
				<text transform="matrix(1.0084 0 0 1 151.8705 351.1067)" style="fill:#FFFFFF; font-family:'KronaOne-Regular'; font-size:42.0577px;">COMPANY</text>
		</g>
		<g>
			
				<text transform="matrix(1.0084 0 0 1 160.636 373.5652)" style="fill:#FFFFFF; font-family:'Montserrat-Light'; font-size:14.7342px;">YOUR TAGLINE HERE</text>
		</g>
	</g>
</g> -->
</svg>
